<svg id="Layer_1" data-name="Layer 1" xmlns="http://www.w3.org/2000/svg" viewBox="0 0 1071.04 1071.04"><defs><style>.cls-1{fill:#0085e5;}.cls-2{fill:#fcfdfe;}.cls-3{fill:#fefefe;}.cls-4{fill:#fdfdfe;}.cls-5{fill:#0072c4;}.cls-6{fill:#0172c4;}.cls-7{fill:#0474c4;}.cls-8{fill:#0072c3;}.cls-9{fill:#0186e5;}</style></defs><title>DSM Logo</title><path class="cls-1" d="M1071,89.25V981.79q-16.32,72.93-89.25,89.25H89.25Q16.32,1054.72,0,981.79V89.25Q16.32,16.32,89.25,0H981.79Q1054.72,16.32,1071,89.25Z"/><path class="cls-2" d="M380.75,712.26c-7.15-43.18,2-65.31,54.84-67.48,46.5-1.91,100.46,28.71,140.79-20.07-28.85-30.07-66.55-21.16-101.51-22-41.15-1-80.28-3.1-92.66-53.18-6.86-156.62,89.91-224.11,241.35-169.2,35.91,13,19,41.42,22.05,64.26-55.94,54.6-139-5.68-195.57,46.16,3.92,25.55,24.25,21.09,41.16,22.2,160,10.5,160,10.46,152.92,168.13C588.55,746.53,499.91,757,380.75,712.26Z"/><path class="cls-3" d="M938.67,712.26Q936,623.92,933.44,535.6q-85.53,55.33-171.07,0l-5.22,176.66q-32,30.09-63.93,0c-.5-88.74-2.09-177.49-.72-266.19.34-22.54-14.46-54.27,22.3-64.8,24.43-7,44.31,4.89,57.53,23.51,51,71.94,100.11,71.94,151.15,0,13.22-18.62,33.1-30.51,57.53-23.51,36.76,10.53,22,42.26,22.31,64.8,1.37,88.7-.23,177.45-.73,266.19Q970.63,742.35,938.67,712.26Z"/><path class="cls-4" d="M68.42,712.23l.06-219.44c15.25-18.71,35.2-23.93,58.12-20.44,33.61,8,33.48,47.78,55.73,62.52,31.63,21,5.1-10.61,9.13-15.49-16.09-66.7-92.61-33.26-123-75,1.17-18.06-2.55-49.62,4.27-52.09,66.29-24,137.19-21.9,202.45-4C325.27,402,337.11,454.35,335,505.62c-2.55,61.27,9.15,124.14-22.64,181.72C238.9,772.73,153.38,739.77,68.42,712.23Z"/><path class="cls-5" d="M380.75,712.26c87.94-9.1,181.85,32.17,263.37-31.2C599.83,777.19,466.89,792.94,380.75,712.26Z"/><path class="cls-6" d="M68.42,712.23c81.55-5.84,166.8,24.66,243.91-24.87C260,778.06,149.27,789.35,68.42,712.23Z"/><path class="cls-7" d="M68.48,444.37c46.83.64,93.66,1.35,140.5,1.88,30.83.36,59.51,3.09,55.31,45.72-43.94,45.83-88.14,40.17-132.51.68l-63.3.14Z"/><path class="cls-8" d="M450,490.73c-10.76-47.74,22.13-44.08,52-44.36,47.86-.46,95.72-1.19,143.56-1.81C597.16,530.9,515,474.23,450,490.73Z"/><path class="cls-5" d="M382.21,549.51C420,587.65,468.39,579,515,580.73c28.57,1.08,72.55-14.46,61.42,44C508.65,607.41,409.29,671.77,382.21,549.51Z"/><path class="cls-8" d="M762.37,535.6c-.77-7.29-3.56-15.12-1.8-21.73,2.21-8.26,5.81-27.5,18.69-10.65,46.77,61.21,90.52,61.2,137.29,0,12.87-16.85,16.48,2.39,18.69,10.65,1.76,6.61-1,14.44-1.8,21.73Q847.91,634.9,762.37,535.6Z"/><path class="cls-8" d="M693.22,712.26h63.93Q725.19,793.31,693.22,712.26Z"/><path class="cls-8" d="M938.67,712.26h63.93Q970.62,793.31,938.67,712.26Z"/><path class="cls-9" d="M131.78,492.65l132.51-.7c.92,37,3.89,74.07,2.26,110.93-2.17,49.41-40.86,41.82-73.73,44.49-41,3.33-62.83-9-59.47-54.78C135.78,559.49,132.51,526,131.78,492.65Z"/></svg>