<?xml version="1.0" encoding="utf-8"?>
<!-- Generator: Adobe Illustrator 23.0.1, SVG Export Plug-In . SVG Version: 6.00 Build 0)  -->
<svg version="1.1" id="Layer_1" xmlns="http://www.w3.org/2000/svg" xmlns:xlink="http://www.w3.org/1999/xlink" x="0px" y="0px"
	 viewBox="0 0 1080 1080" style="enable-background:new 0 0 1080 1080;" xml:space="preserve">
<style type="text/css">
	.st0{fill:#FFFFFF;}
</style>
<title>Noblit Logo</title>
<path d="M532.8,1073.2c-0.1-1.4-1-2.7-2.3-3.2c-8.9-4.4-17.8-8.8-26.6-13.3c-1.7-0.8-3.3-1.9-4.9-2.9c-10.3-6.3-20.5-12.8-30.9-18.9
	c-9.6-5.6-18.7-12-27.3-19.1c-24.7-20.6-49.6-41-74-62.1c-11.8-10.2-22.7-21.5-33.8-32.5c-6.7-6.7-12.9-13.9-19.5-20.7
	c-13.8-14.4-26-30.1-37.8-46.1c-13.6-18.2-26.9-36.6-39-55.9c-16.9-26.8-33.4-53.9-47.9-82.1c-6.9-13.5-13-27.3-18.4-41.5
	c-3.3-8.6-7.1-17-10.4-25.7c-4.3-11.5-8.3-23.1-12.3-34.8c-2.4-6.9-4.6-13.9-6.8-20.9c-1.8-5.9-3.6-11.7-5.3-17.7
	c-2.8-10-5.6-20-8.2-30.1c-1.8-6.9-3.4-13.8-5-20.7c-1.2-4.8-2.3-9.7-3.4-14.5c-1.7-7.1-3.5-14.2-5-21.4c-1.6-7.6-2.9-15.3-4.3-23
	c-0.3-1.4-0.4-2.8-0.8-4.2c-3.4-14.8-4.6-29.9-5.7-45c-0.4-5.4-1-10.8-1.6-16.2c-0.1-1.4-0.5-2.8-0.5-4.2c-0.5-10.4-1-20.8-1.5-31.2
	c0-1.7-0.1-3.3-0.3-5c-2.8-17.6-2.2-35.4-3.2-53.1c-0.2-3.1-0.1-6.2-0.5-9.2c-1.3-11.8-1.5-23.6-1.8-35.5
	c-0.5-16.8-1.7-33.6-2.6-50.3c-0.1-1.6-0.1-3.3-0.1-5c0-18.7,0-37.4,0-56.1c0-2.3,0.1-4.7,0.2-7.1c1.9-0.8,3.3-1.8,4.9-2.1
	c6.7-1.4,13.5-2.6,20.2-3.8c4.2-0.7,8.4-1.1,12.6-1.8c11.7-1.8,23.4-3.5,35.1-5.5c8.9-1.5,17.6-3.3,26.5-4.9
	c3.5-0.6,7.1-0.8,10.5-1.5c14.4-2.7,28.8-5.7,43.2-8.3c11.9-2.1,23.5-5.3,35.2-8.1c13.6-3.2,27-6.8,40.3-11.2
	c11.7-3.8,23.5-7.2,35.2-11.1c9.2-3.1,18.2-6.6,27.2-10.2c18-7.2,36-14.5,53.9-21.9c7.6-3.2,15.1-6.7,22.6-10.3
	c15-7,29.9-14.1,44.9-21.2c9-4.3,17.8-8.9,26.7-13.3c6.4-3.3,14-3.3,20.4,0c12.1,5.9,24.1,12.1,36.3,17.9c15,7.1,30,14.1,45.1,20.7
	c19.3,8.5,38.6,16.7,58,24.8c9.4,3.9,19,7.2,28.6,10.5c11.6,4.1,23.2,8.1,34.9,11.8c9.2,2.9,18.6,5.4,28,7.9
	c10.5,2.8,21,5.6,31.6,8.3c6.6,1.7,13.4,3,20.1,4.4c7,1.4,13.9,2.8,20.9,4.1c11.4,2,22.8,4,34.2,6c9.3,1.6,18.6,3.4,27.9,5
	c3.3,0.6,6.6,0.7,9.9,1.2c10.7,1.8,21.4,3.7,32.2,5.6c7.5,1.3,14.9,2.7,22.3,4c2.8,0.5,5.7,0.7,8.2,3.1c0.1,2,0.2,4.4,0.2,6.7
	c0,14.9,0.2,29.9,0,44.8c-0.2,10.2-1.1,20.3-1.5,30.5c-0.6,14.9-0.9,29.8-1.5,44.7c-0.5,13.5-1.3,27-2,40.4c-0.3,5-0.8,9.9-0.8,14.9
	c0,9.5-0.6,18.9-2,28.3c-0.3,1.6-0.3,3.3-0.3,5c-0.4,7.1-0.8,14.2-1.2,21.3c-0.2,3.8-0.5,7.6-0.4,11.4c0.1,3.8-0.3,7.6-1.1,11.3
	c-0.6,3-1,6.1-1.2,9.1c-0.9,8.5-2.1,16.9-2.6,25.4c-0.6,10-3,19.6-4.3,29.5c-1,7.7-3,15.3-4.6,23c-0.2,1.1-0.6,2.3-0.8,3.5
	c-1.5,9.6-3.7,19.1-6.5,28.4c-1.4,4.8-2.3,9.7-3.5,14.5c-3,11.7-6.1,23.3-9.2,35c-2.1,7.8-4.2,15.5-6.6,23.2
	c-3.6,11.3-7.4,22.5-11.3,33.6c-3.5,9.8-7.2,19.5-11.1,29.1c-5.9,14.2-12.1,28.3-18.1,42.4c-10,23.1-22.9,44.6-35.9,66.1
	c-8.7,14.4-17.3,28.8-26.7,42.7c-11.8,17.4-24.5,34.3-36.7,51.4c-17.9,24.9-39.4,46.6-60.6,68.5c-15.7,16.2-32.8,30.8-50,45.3
	c-15.2,12.8-30.6,25.4-45.8,38.3c-10.6,8.8-21.8,16.6-33.7,23.6c-7.7,4.6-15.5,9.2-23,14.1c-11.8,7.7-24.4,13.5-37.2,19
	c-2,0.8-4.1,1.4-4.4,4L532.8,1073.2z M604.5,497c0,3.5-0.5,6.9,0,10.1c1,6.4,0.7,12.7,0.8,19.1c0.2,9.7,0.5,19.4,0.6,29.1
	c0.2,17.3-0.1,34.5,0.9,51.8c0.6,9.4,0.1,18.9,0.2,28.4c0.1,9.2,0.2,18.5,0.5,27.7c0.3,9.5,0.8,18.9,1,28.3
	c0.2,10.2,0,20.4,0.1,30.5c0.1,10.7,0.2,21.3,0.4,32c0.3,10.9,0.8,21.7,1,32.6c0.3,14.7,0.5,29.3,0.8,44c0.2,1.6,0.4,3.2,0.7,4.7
	c1.3-0.9,2.6-1.8,3.8-2.9c4.6-4.8,9-9.7,13.7-14.4c9-9.1,17.5-18.6,25.5-28.6c12-14.8,22.6-30.3,31.1-47.3
	c10.1-20.1,16.4-42,18.5-64.4c1.3-11.5,1.9-23.1,1.7-34.7c-0.3-10.4-0.1-20.8,0-31.3c0-3.1,0.4-6.1,1-9.1
	c3.6-16.2,10.7-31.5,20.6-44.8c4-5.3,8-10.6,11.9-15.9c1-1.3,1.7-2.8,2.1-4.4c0.6-4,1-8,1.1-12c0.3-14,0.6-27.9,0.6-41.9
	c0-15.1-0.3-30.3-0.6-45.5c-0.2-10.9-0.5-21.7-1.2-32.6c-0.7-12-1.8-24-2.8-36c-1.4-19.1-4.3-38-8.6-56.7
	c-2.5-10.4-5.2-20.6-9.7-30.3c-9-19.5-22.4-35.6-38.2-49.8c-13.1-11.7-27.3-22-42.5-30.7c-10-5.8-20.4-11.1-30.3-17.1
	c-21.6-12.9-41.2-28.6-60.3-44.8c-2.3-2-4.7-3.9-7.1-5.9c-2.6-2.2-5.2-2-7.8-0.1c-1.7,1.3-3.3,2.7-4.9,4c-2,1.7-3.9,3.5-5.9,5.1
	c-7.9,6.4-15.8,12.8-23.9,19c-12.2,9.4-24.6,18.4-38.2,25.8c-10.2,5.6-20.4,11-30.3,17.1c-19.6,12.1-37.9,25.9-53,43.4
	c-6.2,7.2-11.8,14.9-16.7,23c-9.2,15.3-13.7,32.1-17.2,49.3c-3.4,16.2-5.1,32.7-7,49.1c-0.5,4-1,8-1.2,12
	c-0.7,11.1-1.3,22.2-1.8,33.3c-0.5,12.7-1,25.5-1.2,38.3c-0.2,13.3-0.2,26.5,0,39.8c0.2,13.7,0.7,27.4,1,41.1c0,2.6,1,5.1,2.6,7.2
	c3,3.9,5.9,8,8.9,12c8.2,10.4,14.8,22,19.4,34.5c3.6,9.8,6.2,19.8,5.9,30.5s0,21.3-0.1,32c-0.2,10.6,0.4,21.3,1.7,31.8
	c1.8,13.3,4.9,26.5,9.3,39.2c9.1,25.8,23.9,48.3,41,69.2c7.5,9.2,15.5,17.8,23.4,26.6c4.9,5.5,10,10.7,15.1,16c1,1.1,1.9,2.9,4.1,2
	c0.1-0.7,0.2-1.4,0.3-2.1c0.2-15.4,0.4-30.8,0.7-46.2c0.2-13,0-26,0.7-39c0.9-16.8,0.1-33.6,1.1-50.4c0.6-10.2,0.1-20.4,0.2-30.5
	c0.1-9,0.2-18,0.5-27c0.3-9.2,0.8-18.4,1-27.6c0.2-10.4-0.4-20.9,0.2-31.3c0.9-17.2-0.4-34.5,1.3-51.8c0.9-8.9,0.2-18,0.1-27
	c0-1.9-0.2-3.7-0.4-5.6c-1.3-0.7-2.7-1.2-4.1-1.7c-11.8-2.6-23.5-5.1-35.3-7.6c-15.2-3.3-30.4-6.6-45.7-9.9c-4.6-1-5-1.8-4.5-6.3
	c1.1-9.6,2.1-19.2,3.2-28.9c1-9.4,2-18.8,3-28.1c0.3-1.7,0.8-3.4,1.5-5.1c3-1,5.6-0.4,8.1,0.1c3.7,0.7,7.4,1.6,11.1,2.3
	c17.2,3.1,34.4,6.1,51.6,9.2c12.5,2.3,25.1,4.5,37.6,7c3.4,0.7,7.1,0.6,10.2,3.5c-0.6,7.9-1.1,15.9-1.8,23.8
	c-1.2,14.6-2.5,29.2-3.6,43.8c-0.8,9.9-1.3,19.8-2,29.7c-0.1,2.6-0.3,5.2-0.8,7.7c-0.9,3.8,0.4,6.1,3.4,8.4
	c10.6,7.9,21,16.1,31.6,24.2c1.2,0.8,2.5,1.6,3.8,2.2c13.1-9.7,25.8-19.4,38.5-29.5c-0.5-5.2-1-10.1-1.3-15
	c-0.8-13.4-1.8-26.9-3-40.3c-1.2-12.2-1.8-24.5-2.7-36.8c-0.4-4.7-1-9.4-1.3-14.1c0-1.7,0.2-3.4,0.5-5.1c2-0.6,3.7-1.2,5.5-1.6
	c7.6-1.5,15.3-2.9,23-4.3c13.7-2.5,27.4-5,41.1-7.5c13.9-2.6,27.8-5.3,41.8-7.9c2.5-0.5,5.2-1.3,7.5,0.9c0.9,7.2,1.9,14.5,2.8,21.7
	c0.9,7.5,1.7,15,2.3,22.6c0.6,7.2,2.2,14.4,1.8,21.9c-9.9,3.2-20,4.6-29.9,7c-10.1,2.4-20.4,4.1-30.5,6.6
	C624.6,492.5,614.5,493.6,604.5,497L604.5,497z"/>
<path class="st0" d="M604.5,497c10-3.3,20.1-4.5,29.9-7c10.1-2.5,20.3-4.3,30.5-6.6c9.8-2.3,19.9-3.8,29.9-7
	c0.5-7.5-1.2-14.7-1.8-21.9c-0.6-7.5-1.5-15-2.3-22.6c-0.8-7.3-1.8-14.5-2.8-21.7c-2.4-2.1-5-1.3-7.5-0.9
	c-13.9,2.5-27.8,5.3-41.8,7.9c-13.7,2.5-27.4,5-41.1,7.5c-7.7,1.4-15.3,2.8-23,4.3c-1.8,0.4-3.6,1-5.5,1.6c-0.3,1.7-0.5,3.4-0.5,5.1
	c0.3,4.7,1,9.4,1.3,14.1c0.9,12.3,1.5,24.5,2.7,36.8c1.3,13.4,2.2,26.8,3,40.3c0.3,4.9,0.8,9.9,1.3,15c-12.8,10-25.5,19.8-38.5,29.5
	c-1.3-0.7-2.6-1.4-3.8-2.2c-10.5-8-20.9-16.3-31.5-24.2c-3.1-2.3-4.3-4.7-3.4-8.4c0.5-2.5,0.7-5.1,0.8-7.7c0.7-9.9,1.2-19.8,2-29.7
	c1.1-14.6,2.4-29.2,3.6-43.8c0.6-8,1.2-16,1.8-23.8c-3.1-2.9-6.8-2.8-10.2-3.5c-12.5-2.5-25.1-4.7-37.6-7
	c-17.2-3.1-34.4-6.1-51.6-9.2c-3.7-0.7-7.4-1.5-11.1-2.3c-2.5-0.5-5.1-1.2-8.1-0.1c-0.6,1.6-1.1,3.3-1.5,5.1c-1.1,9.4-2,18.8-3,28.1
	c-1,9.6-2.1,19.2-3.2,28.9c-0.5,4.5,0,5.3,4.5,6.3c15.2,3.3,30.4,6.6,45.7,9.9c11.8,2.5,23.5,5.1,35.3,7.6c1.4,0.4,2.8,1,4.1,1.7
	c0.1,1.9,0.4,3.8,0.4,5.6c0,9,0.7,18.1-0.1,27c-1.7,17.3-0.4,34.5-1.3,51.8c-0.5,10.4,0,20.8-0.2,31.3c-0.2,9.2-0.8,18.4-1,27.6
	c-0.2,9-0.4,18-0.5,27c-0.1,10.2,0.5,20.4-0.2,30.5c-1,16.8-0.2,33.6-1.1,50.4c-0.7,13-0.4,26-0.7,39c-0.3,15.4-0.5,30.8-0.7,46.2
	c-0.1,0.7-0.1,1.4-0.3,2.1c-2.2,0.9-3-0.9-4.1-2c-5.1-5.3-10.2-10.5-15.1-16c-7.9-8.8-16-17.5-23.4-26.6c-17.1-21-32-43.4-41-69.2
	c-4.4-12.7-7.5-25.9-9.3-39.3c-1.4-10.6-1.9-21.2-1.7-31.8c0.1-10.7-0.2-21.3,0.1-32s-2.4-20.6-5.9-30.5
	c-4.6-12.4-11.2-23.9-19.4-34.3c-3-3.9-5.9-8-8.9-12c-1.6-2-2.6-4.6-2.6-7.2c-0.3-13.7-0.9-27.4-1-41.1c-0.2-13.3-0.2-26.5,0-39.8
	c0.2-12.8,0.7-25.5,1.2-38.3c0.5-11.1,1.1-22.2,1.8-33.3c0.2-4,0.8-8,1.2-12c1.9-16.4,3.7-32.9,7-49.1c3.6-17.2,8.1-34.1,17.2-49.3
	c4.9-8.1,10.5-15.8,16.7-22.9c15.1-17.6,33.5-31.3,53-43.4c9.8-6.1,20.1-11.5,30.3-17.1c13.5-7.4,26-16.4,38.2-25.8
	c8.1-6.2,15.9-12.6,23.9-19c2-1.6,3.9-3.4,5.9-5.1c1.6-1.4,3.2-2.8,4.9-4c2.6-1.9,5.2-2.1,7.8,0.1c2.4,2,4.8,3.9,7.1,5.9
	c19.2,16.2,38.7,31.9,60.3,44.8c9.9,6,20.3,11.2,30.3,17.1c15.2,8.7,29.4,19,42.5,30.7c15.8,14.2,29.1,30.4,38.2,49.8
	c4.5,9.7,7.2,20,9.7,30.3c4.3,18.7,7.2,37.6,8.6,56.7c1,12,2.1,24,2.8,36c0.6,10.9,0.9,21.7,1.2,32.6c0.3,15.1,0.6,30.3,0.6,45.5
	c0,14-0.3,27.9-0.6,41.9c-0.1,4-0.5,8-1.1,12c-0.4,1.6-1.1,3.1-2.1,4.4c-3.9,5.4-7.9,10.6-11.9,15.9c-9.9,13.3-17,28.5-20.6,44.7
	c-0.6,3-1,6.1-1,9.1c-0.1,10.4-0.3,20.8,0,31.3c0.2,11.6-0.4,23.2-1.7,34.7c-2.2,22.4-8.5,44.2-18.5,64.4
	c-8.5,17-19.2,32.6-31.1,47.3c-8,9.9-16.5,19.5-25.5,28.6c-4.7,4.7-9.1,9.6-13.7,14.4c-1.2,1.1-2.5,2-3.8,2.9
	c-0.3-1.6-0.6-3.1-0.7-4.7c-0.3-14.7-0.5-29.3-0.8-44c-0.3-10.9-0.8-21.7-1-32.6c-0.3-10.7-0.3-21.3-0.4-32
	c-0.1-10.2,0.1-20.4-0.1-30.5c-0.2-9.5-0.7-18.9-1-28.3c-0.2-9.2-0.4-18.4-0.5-27.7c-0.1-9.5,0.4-19-0.2-28.4
	c-1-17.3-0.7-34.5-0.9-51.8c-0.1-9.7-0.4-19.4-0.6-29.1c-0.1-6.4,0.2-12.8-0.8-19.1C604,503.9,604.4,500.6,604.5,497z"/>
</svg>
