<?xml version="1.0" encoding="utf-8"?>
<!-- Generator: Adobe Illustrator 23.0.1, SVG Export Plug-In . SVG Version: 6.00 Build 0)  -->
<svg version="1.1" id="Layer_1" xmlns="http://www.w3.org/2000/svg" xmlns:xlink="http://www.w3.org/1999/xlink" x="0px" y="0px"
	 viewBox="0 0 1080 1080" style="enable-background:new 0 0 1080 1080;" xml:space="preserve">
<style type="text/css">
	.st0{fill:#3B4044;}
	.st1{fill:#FEC438;}
</style>
<title>Artboard 1</title>
<path class="st0" d="M1027.3,555.2C796.1,423.5,568.7,296.7,344.1,164.9c-103.3-60.6-152.8-50-147.5,82
	c7.8,195.8,11.9,391.8,13.9,587.8c0.3,33.2,27.7,88.7-29.4,96.5c-41.8,5.8-69.8-32.3-70.9-77c-5.4-223.7-22.7-448.1-9.5-670.8
	c9-151.6,146-205.8,288.8-128c181,98.6,355.8,208.7,536.1,308.7C1006.2,408.9,1023.4,475.8,1027.3,555.2z"/>
<path class="st0" d="M184.1,1003.7c233.1-101.7,432.6-243.4,646-360.3c37.6-20.6,90-84.3,127.3-22.9c35.6,58.5-21.9,98.1-73.6,127.7
	c-154.8,88.8-307.1,182-463.1,268.7C345,1058.9,265.1,1067.3,184.1,1003.7z"/>
<path class="st1" d="M363.3,339.8c136.1,36.8,232.3,126.9,360.2,181.7c-110.3,91.6-227.9,148.7-360.2,214V339.8z"/>
</svg>
