<svg id="Layer_1" data-name="Layer 1" xmlns="http://www.w3.org/2000/svg" viewBox="0 0 1071.04 1071.04"><defs><style>.cls-1{fill:#182747;}.cls-2{fill:#fefefe;}.cls-3{fill:#e4a024;}.cls-4{fill:#1b243e;}</style></defs><title>SyncLounge</title><path class="cls-1" d="M209.31,7.36H874.57C961.34,13.69,1021,59,1060,135.06c12.15,23.68,10.47,49.64,16.49,74.25V458.78c-27.45,15.71-54.58,13.12-75.22-7.81a149.93,149.93,0,0,1-20.49-25.23c-25.59-51.12-46.08-104.62-81.46-151C701.55,15.57,297.61,48.58,145.1,337c-8.2,15.51-13.43,33.43-30.75,42.5a451,451,0,0,1-67.71,6.43c-15.36.28-29.6-2.55-39.28-16.2V209.31C13.69,122.54,59,62.91,135.06,23.85,158.74,11.7,184.7,13.38,209.31,7.36Z"/><path class="cls-1" d="M7.36,874.57V720.13c14.94-14.84,34.16-10.58,52.16-11.59,14.44-.82,29,.66,43.26-2.78,17.13-2.39,21.45,11.4,26.58,22.46,18.2,39.33,41.67,75.33,67.43,110,.52,3.93,5.16-.67,1.55,1-1.33.6-2-.1-2.06-2.09-.56-29.87,15.21-52.6,39.53-56.93,10.88,15.58,15.89,33.15,17.73,51.81-21.11,44.17,3.19,66.59,37.84,89.51,154.83,102.44,359.66,100.92,509.78-4.3,28.7-20.11,47.37-40.72,34.57-77.48,1-17.94,8.4-32.47,23.31-42.86,23.91-4.18,21.53,21.58,35.82,31.33C906,816,914.73,801.87,924.52,788.51c6.05-8.25,10.61-20.37,25.16-15.1,25.63,28,60.2,13.24,90.52,18.6,12,2.12,25.34-4.5,36.32,5.34v77.22c-6.33,86.77-51.61,146.4-127.7,185.46-23.68,12.15-49.64,10.47-74.25,16.49H209.31c-86.77-6.33-146.4-51.61-185.46-127.7C11.7,925.14,13.38,899.18,7.36,874.57Z"/><path class="cls-1" d="M1076.52,797.35c-35.06,14.55-71.48-1-107.3,4.73-16.57,2.66-20.29-15.2-23.5-28.81-9.42-12.9-2.28-24.82,3.17-36,43.61-89.5,49.11-183.37,33.34-279.9-2.18-13.32-7.16-27.24,3.49-39.59,19.86,36.73,51.8,46.68,90.8,41Z"/><path class="cls-1" d="M108.56,707.62c-5.7,11.79-16.27,12.63-27.51,12.55-24.57-.17-49.13,0-73.69,0V369.69c23.86,7.34,48,7.55,72.49,3.6,11.22-1.81,23.18-6.12,33.94,2.32,10.54,11.68,4.94,24.27,1.15,36.08-28.43,88.61-25.29,177.79-5.7,267.36C111.34,688.63,114.23,698.23,108.56,707.62Z"/><path class="cls-2" d="M108.56,707.62c-34.39-101-35-202.29-3.32-304,2.9-9.32,5.7-18.69,8.55-28,45-99.27,111.52-179.23,208.42-231.76C572.6,8.12,881.37,127.13,976.87,396c2.62,7.38,5.89,14.51,8.85,21.76,23.76,96.5,24.44,192.21-10.83,286.39-8.76,23.39-19.4,46.09-29.17,69.1-18.17,24.09-31.2,52.05-55.62,74.48-10.63-17.12-13.7-37.12-27.11-51.15-7.36-1-12.68-5.54-16.9-11-19.32-25.12-42.3-46.4-66.43-66.85-18.44-15.62-17.21-24.85,4-34.66,23.27-10.78,46.1-22.12,68-35.47,14.47-8.83,29.94-8.89,45.57-3.69,12.82,4.27,21.07,1.05,23.66-13,10.44-56.56,14.92-113-1.94-169.27q-34-144.7-154.11-232.17c-166.14-121.08-415.49-80.22-534.42,87.64-27.18,38.35-49.33,78.79-60.5,124.73-20.49,61.82-18.92,124.29-6,187.19,2.72,13.21,9.38,19.19,23,14.53,24.16-8.28,44.5,0,63.8,14.07,15.37,11.16,33.47,16.91,50.56,24.68,13.07,5.93,24.48,17.28,9.78,29.05-26.81,21.49-47,50.58-77.94,67.09-18.66,18.65-25.65,43.91-37.86,68.85C154.28,807.41,132.31,757,108.56,707.62Z"/><path class="cls-3" d="M844.09,841.53c12.36,46.94,12.36,46.94-27.22,76.38C657.09,1036.76,437,1038.67,275.1,922.63c-48.57-34.82-48.57-34.82-30.13-89.57,21.84-78.7,83.92-112.55,153.87-136.92,16.12-5.61,31,2.3,44.5,11.22,67.66,44.68,135.05,44.45,201.8-1.7,19-13.12,37.93-13.85,58.79-5a313.87,313.87,0,0,1,116.33,84.68C834.58,801.93,841,820.75,844.09,841.53Z"/><path class="cls-4" d="M844.09,841.53c-33.13-64.42-83.7-109-151.46-134.74-15.36-5.83-26.48-5-40.42,5.61-70,53.3-149.48,53.39-219.07.29-13.79-10.52-24.76-11.91-40.32-6-64.66,24.42-114,66.22-147.85,126.4.11-18.78-17.64-33.58-11.93-53.61,19.13-34.51,50.45-56.9,83.65-81.32-36.33-9.6-66.88-23.88-94-46.11-15-12.28-30,1.85-43.67,7.62s-19.09,3.25-22.31-10.72c-16.14-70.24-19.67-140.1,4.44-209.44,7.89,3.66,11.19,11.18,12.29,18.56,2.86,19.19,18.19,25.73,32.08,34.06,11.76,15.82,11.22,35.43,16.28,53.32,16.12,57,50.87,95.19,110.13,107.66,29.71,6.25,34.89.56,25.6-27.66C340.9,575,339.33,524.6,356.79,474.28c4.3-12.39,7-27.8,25.27-28.53,14.27,14.65,9.34,38,23.84,52.54,4.32,12.64,1.35,25.3.48,38.08-4.93,72.82,48.35,170.51,148.17,161.14,51.87-4.86,99.86-46,116.94-103.53,6.82-23,8.2-46.56,8.91-70.29,1.8-22.55,12.67-38.94,33.09-48.85,16.8,1.84,18.13,16,21.43,27.92,11.45,41.57,4.3,81.91-8.35,122-9.07,28.68-4.55,33.6,24.69,28.54C827.6,640.07,880.91,560.14,867.05,480c-2.46-14.26-9.4-28.5-1.6-43.18,18.37-8.19,20.66,8.93,26.46,18.09,16.48,26.06,16,26.39,36.44,3,19.68,64.34,14.17,128.52-.72,192.77-3.14,13.54-10,15.56-20.61,8.81-24.12-15.3-44.55-12.05-65.9,7.47-19.13,17.48-45.43,22.82-71.83,31.25,37.48,28.48,73.71,55.9,93.7,98.41C861.33,813.53,840.88,822.56,844.09,841.53Z"/><path class="cls-1" d="M203.4,494.42c-35.86-1.07-37.21-2.83-42.27-54.94,21-86.2,70.34-153.89,139.39-207.21C496.12,81.21,781,144.55,895.3,363.69c15.54,29.8,22.78,62.54,33.05,94.2-1,7.71-1.23,15.66-3.32,23.08-2.27,8.08-8.06,13.09-17.28,13.09-9.48,0-12.83-4.91-15.64-13.74-5.2-16.38-11.4-32.79-25-44.72-17.84-2-21.44-18.66-29.9-29.83-37.55-49.55-97.77-67.12-151.78-44.07-18.21,7.78-24.62,14.24-8.73,33.41,18.75,22.64,42,45.08,38.33,79.32-.7,21.05-31.29,27.32-25.48,51.58-18-5-17.08-22.5-22.29-35.34C641.6,427.58,596.59,395.48,534.69,398c-51.51,2.11-84.59,32-109.73,73.75-6.72,11.17-7.8,27.39-24.94,30-22.09-12.94-18.47-34.53-18.46-54.9-6.66-24.71,12.73-37.51,25-53.09,15.67-19.84,15.26-23.16-8.5-32.42-64.55-25.15-129.61,1.5-164.88,66.05C221.37,449.08,219.05,474.68,203.4,494.42Z"/><path class="cls-3" d="M400,501.79c7.71-15.9,14-32.74,23.38-47.55,60-94.17,188.17-89.55,243.17,8.1,11.31,20.08,15.93,42.23,23,63.67.57,41.13-4.84,80.62-27.81,116.32-59.81,93-186.74,90.08-242.24-5.62C394.86,594.24,392.29,548.81,400,501.79Z"/><path class="cls-2" d="M715,474.43c-16-32.74-31.13-66.22-61.13-89.14-14.76-11.28-3.22-15.32,4.46-20.76C721.8,319.58,816.47,343,854.73,413.12c4.1,7.51,8.24,15,12.36,22.48,19,53,18.36,105.1-10.17,154.55-28.31,49.05-70.69,75.92-128.6,75.92-21.45,0-30-3.44-18.35-28.37C734.67,584.81,738.92,529.64,715,474.43Z"/><path class="cls-2" d="M203.4,494.42c6.64-86.08,69.32-144,128.22-151.79,35.08-4.67,66.2,3.88,95.89,22,14.06,8.58,10.62,13.18-.08,22.17-19.55,16.41-37.24,35-45.87,60.08-35.75,63.3-35.33,128.32-5.8,193,9.69,21.22,3.86,24.91-15.69,26.28-68.32,4.76-134.16-48-150.13-121.95C206.42,527.89,205.51,511,203.4,494.42Z"/></svg>